<mxfile host="app.diagrams.net" modified="2024-04-04T08:40:28.834Z" agent="Mozilla/5.0 (Macintosh; Intel Mac OS X 10_15_7) AppleWebKit/537.36 (KHTML, like Gecko) Chrome/123.0.0.0 Safari/537.36" version="24.0.7" etag="9m8ldr9PUHfyH5f-fmZK" type="github">
  <diagram name="第 1 页" id="3uKBMezZJZn_TcOkcj3D">
    <mxGraphModel>
      <root>
        <mxCell id="0" />
        <mxCell id="1" parent="0" />
      </root>
    </mxGraphModel>
  </diagram>
</mxfile>
